<?xml version="1.0" encoding="UTF-8"?>
<svg id="Layer_1" xmlns="http://www.w3.org/2000/svg" xmlns:xlink="http://www.w3.org/1999/xlink" version="1.1" viewBox="0 0 864 864">
  <!-- Generator: Adobe Illustrator 29.3.1, SVG Export Plug-In . SVG Version: 2.1.0 Build 151)  -->
  <defs>
    <style>
      .st0 {
        stroke-width: 16px;
      }

      .st0, .st1, .st2, .st3, .st4, .st5, .st6 {
        stroke-miterlimit: 10;
      }

      .st0, .st1, .st6 {
        fill: none;
      }

      .st0, .st6 {
        stroke: #6d6e71;
      }

      .st7, .st2 {
        fill: #231f20;
      }

      .st1, .st2, .st3, .st4, .st5 {
        stroke: #231f20;
      }

      .st8 {
        isolation: isolate;
      }

      .st3 {
        fill: #fff200;
      }

      .st9, .st5 {
        fill: #fff;
      }

      .st4 {
        fill: #f7941d;
      }

      .st6 {
        stroke-width: 8px;
      }
    </style>
  </defs>
  <image class="st8" width="1000" height="1080" transform="translate(198.2 621.6) scale(.5 .6)" xlink:href="eagle-mascot-logo-sign-vector-21266300.jpg"/>
  <path class="st2" d="M288,432c3.1,10.6-14.2,25.4-33.3,38.3-1.3,6.2-2.1,14.6,0,24,7.1,32.5,43.4,54.7,53.3,48,8.6-5.8-8.4-29.3,4-45.3,11-14.2,40.7-17,52-4,6.9,8,5.1,19.9,4,26.7-5.6,34.2-37.7,54.3-34.7,57.3,5.4,5.5,39.7-23.1,45.3-17.3,6.5,6.8-35.4,49.9-28,58.7,5.9,7,43.1-8.5,72-32,18.3-14.9,25-26.3,30.7-24,13.8,5.5-11.6,78.4,1.3,84,11.3,4.9,54.7-40.5,70.7-97.3,4.3-15.2,6-29.1,10.7-29.3,11.7-.6,13.7,85.1,30.7,86.7,18.9,1.8,63.3-99.6,28-158.7-8.9-14.9-25.1-30.8-22.7-33.3,3.3-3.4,33.2,26,38.7,21.3,6-5.1-14.6-54.3-57.3-81.3-22-13.9-44.7-18.7-44-21.3,1-3.8,50,9.7,52,4,1.8-5.1-33.5-26.2-74.7-34.7-19-3.9-35.3-4.4-46.7-4,8.7-30.2,8.7-37.8,6.7-38.7-3.6-1.5-11.5,20.2-34.7,34.7-10.2,6.4-17.6,7.7-26.7,10.7-40.6,13.1-66.9,42.3-84,61.3-12,13.4-33.7,37.5-26.7,52,7.7,15.8-25.1-118.3,13.3,13.7v-.2Z"/>
  <path class="st1" d="M370.7,479.7c13.6,23.3,17.5,27.2,18.7,26.7,2.4-1.1-8.3-21.1-1.3-28,6.9-6.8,26.2,3.6,28,0,1.7-3.3-16.2-10.9-16-20,.3-16.3,58.1-26.1,57.3-30.7-.9-5.2-76.2,6.7-78.7-2.7-.4-1.5,1.3-3.1,2.5-4.2,21.4-19.5,51.2-26.5,50.8-31.8-.4-5-28.5-12.7-50.7-1.3-5.4,2.8-9.3,6.1-17.2,12.9-10.3,8.8-16.6,16.4-29.5,24.5-5.3,3.3-11,6.2-14.7,4-1.7-1-2.4-2.8-2.9-4.3-3.7-11.9,3.7-26,2.9-26.3-1.1-.5-20.2,13.7-18.7,2.7l-13.3,31,21.3,11.9h63.3l-2,35.8.2-.2Z"/>
  <path class="st1" d="M362.7,426.3"/>
  <path class="st9" d="M420,323.7c45.3-1,77.1-.6,77.3,2.7.2,3.1-26.7,6.3-26.7,12,0,8.1,54.3,3.9,89.3,38.7,8.6,8.6,17.7,21.1,14.7,25.3-6.6,9.1-66.7-26.3-70.7-20-1.1,1.7,2.7,5,8.9,10.1,15.5,12.7,46.3,36.6,55.1,73.9,5.4,22.9,2.1,48.8-5.3,50.7-5,1.3-9.3-9.1-24-25.3-20.5-22.6-14-13.1-8,16,2.7,13.4-.3,27.1-7,40.5-9.8,19.6-27.5,38.7-46.3,55.5l-5.3-46.7-14.7-38.7-25.3-28,25.3,58.7-78.7,54.7,20-61.3,1.3-22.7,10.7-18.7,46.7-73.3-25.3-38.7-53.3-17.3-44,53.3c-3-6.4-6-12.8-8.9-19.2l-.2-.5c-2.3-4.9-4.5-9.8-6.8-14.7-.1-.3-1.1-2.4-1.3-2.7v-.2h-20l32-36,86.7-42.7,4,14.7h-.2Z"/>
  <path class="st2" d="M580.9,595.2"/>
  <polygon class="st3" points="297.3 453.1 273.3 474.3 273.3 506.4 308 542.3 312 497 370.7 479.7 372.7 443.9 309.3 443.9 297.3 453.1"/>
  <path class="st3" d="M597.3,477"/>
  <path class="st9" d="M428.9,387.3c-10.7,9.2-21.3,18.3-32,27.5-4.5,3.9-9,7.7-13.5,11.6,25.4-1.6,50.9-3.1,76.3-4.7l-30.9-34.4h0Z"/>
  <path class="st5" d="M676,432"/>
  <polygon class="st4" points="364.2 400.5 381.2 420.8 362.7 426.3 349.3 426.3 364.2 400.5"/>
  <polygon class="st5" points="362.7 413.4 349.3 426.3 362.7 426.3 362.7 413.4"/>
  <path class="st5" d="M412,294.3"/>
  <polygon class="st1" points="416 478.3 388 478.3 389.3 506.3 362.7 555.7 398.7 542.3 400 519.7 416 478.3"/>
  <polygon class="st9" points="412 382.5 381.3 387.7 334.7 425 378.7 371.7 412 382.5"/>
  <path class="st6" d="M349.3,467.7c7.4-7.6,8.8-10.8,8-12,0,0-2-2.9-58.7,24l-1.3,26.7"/>
  <path class="st0" d="M457.3,443.9"/>
  <path class="st9" d="M338.7,398.3"/>
  <polyline class="st7" points="317.3 387.7 334.7 425 378.7 371.7 428.9 387.3 383.5 426.4 457.3 427.7 400 458.3 416 478.3 400 519.7 416 478.3 400 458.3 457.3 427.7"/>
  <polyline class="st7" points="562.7 590.9 542.3 511.7 477.3 613"/>
</svg>